<svg width="52" height="52"  viewBox="0 0 10240 10240" preserveAspectRatio="xMidYMid meet" xmlns="http://www.w3.org/2000/svg">
<g id="layer101" fill="#151719" stroke="none">
 <path d="M0 5120 l0 -5120 5120 0 5120 0 0 5120 0 5120 -5120 0 -5120 0 0 -5120z"/>
 </g>
<g id="layer102" fill="#fdbc69" stroke="none">
 <path d="M3945 8545 c-491 -52 -850 -158 -1164 -345 l-71 -42 0 -629 0 -628 201 99 c371 183 719 300 1039 350 74 11 154 25 178 30 54 13 282 13 370 1 37 -6 112 -15 167 -22 221 -26 455 -124 579 -244 98 -94 154 -193 190 -343 18 -71 21 -208 6 -217 -5 -3 -10 -26 -10 -50 0 -24 -4 -54 -9 -67 -5 -13 -16 -48 -26 -78 -48 -149 -163 -314 -310 -443 -50 -44 -207 -168 -350 -275 -261 -196 -305 -232 -490 -392 -194 -169 -367 -367 -467 -535 -142 -239 -237 -510 -271 -775 -13 -102 -13 -407 0 -505 48 -367 191 -717 398 -974 73 -92 254 -266 350 -337 316 -237 685 -377 1155 -439 90 -12 199 -17 390 -17 226 0 297 4 485 26 384 47 709 132 1020 268 151 65 305 148 305 164 0 17 -111 258 -178 386 -43 83 -123 254 -260 553 -25 55 -49 104 -53 109 -4 5 -60 -14 -126 -42 -303 -129 -591 -216 -833 -252 -41 -6 -99 -15 -129 -21 -30 -5 -123 -9 -207 -9 -128 0 -170 4 -261 25 -141 33 -221 65 -313 125 -192 125 -288 290 -313 533 -8 79 -8 128 1 187 46 316 207 511 687 830 617 410 922 743 1110 1210 52 129 76 212 101 350 24 131 24 607 1 755 -52 320 -219 679 -429 918 -379 432 -897 675 -1608 753 -202 22 -686 27 -855 9z"/>
 </g>

</svg>